<mxfile host="Electron" agent="Mozilla/5.0 (X11; Linux x86_64) AppleWebKit/537.36 (KHTML, like Gecko) draw.io/24.7.17 Chrome/128.0.6613.36 Electron/32.0.1 Safari/537.36" version="24.7.17">
  <diagram name="Page-1" id="cBdxuWidAAIVes_4VcHe">
    <mxGraphModel dx="1491" dy="2040" grid="1" gridSize="10" guides="1" tooltips="1" connect="1" arrows="1" fold="1" page="1" pageScale="1" pageWidth="850" pageHeight="1100" math="0" shadow="0">
      <root>
        <mxCell id="0" />
        <mxCell id="1" parent="0" />
        <mxCell id="wdAff879FYjF8KZ41Ooy-1" value="" style="shape=image;verticalLabelPosition=bottom;labelBackgroundColor=default;verticalAlign=top;aspect=fixed;imageAspect=0;image=https://www.cisco.com/c/dam/assets/support/product-images/model/servers-unified-computing-ucs-c220-m5-rack-server.jpg;" parent="1" vertex="1">
          <mxGeometry x="183.58" y="-202.5" width="223.58" height="60" as="geometry" />
        </mxCell>
        <mxCell id="fuXAAY25fGCJyH8Hi8wg-29" value="" style="endArrow=none;html=1;rounded=0;exitX=0.054;exitY=0.496;exitDx=0;exitDy=0;strokeWidth=2;exitPerimeter=0;entryX=1;entryY=0.5;entryDx=0;entryDy=0;" parent="1" source="7RV6S9UgHC443BWlmed_-2" target="fuXAAY25fGCJyH8Hi8wg-32" edge="1">
          <mxGeometry width="50" height="50" relative="1" as="geometry">
            <mxPoint x="590" y="263.79999999999995" as="sourcePoint" />
            <mxPoint x="398.55700425934674" y="250.69999999999982" as="targetPoint" />
          </mxGeometry>
        </mxCell>
        <mxCell id="7RV6S9UgHC443BWlmed_-55" value="10GBASE-T (RJ45)&lt;div&gt;Trunk&lt;/div&gt;" style="edgeLabel;html=1;align=center;verticalAlign=middle;resizable=0;points=[];" parent="fuXAAY25fGCJyH8Hi8wg-29" vertex="1" connectable="0">
          <mxGeometry x="-0.2106" y="-1" relative="1" as="geometry">
            <mxPoint as="offset" />
          </mxGeometry>
        </mxCell>
        <mxCell id="fuXAAY25fGCJyH8Hi8wg-32" value="" style="shape=image;aspect=fixed;image=data:image/png,UklGRvBIAABXRUJQVlA4WAoAAAAQAAAA3wEAuAAAQUxQSEMHAAABEcZt20iCBuuX1X/De83MbgER/Z8AAGXmcQZc4yxOdd55XE4bP2arIjqLlW0ISZ7llJzKylLUtm0jUfuPfX91bURMAJR5IWP/Sm4WqjwN0fLsMSVJkixJlVsWO4T7X4qbsGVJp4t0ekRmFZ/3ehcxAQ7cRlKkPuYkS7ov0LZt27Tt9DE3jnGxcRXbtm3btp0fsG3nC8xn204eL55879oLcwTbe61ZZi8rKSUiHLFt40gSsH2D68XZvfur/JmnkRM2nxoriqJJ4LsfLmICkfycCSwgIIaEMAisYMEMBSFgkt9QnrchMEQgJmgcBBMW6gprLAxgAaNiRY2qsf8MFZJIMC2y92lYaF8NJYEJxMI6lCRdxDZdmn8NGiPl5osnP70AZoE+yJQ90meQEJwGmUqWSAUZVrBviuFgkqcsnsTLl3wRwaHOebilHjzK4P2LFrqTbe6Bl/nD6V+5kiOuhKe55MJX3cjVe8LbbNzygAMp3wuv89Hr3Ff/CXieb89yXf274H3OrzmNoy6HB1pdy2Fcswe80On1XcXwvfBFyxuMOIn6Y/BI15t2EFvdC690fsU99a+EZ1pdxzFctxO80wmnlB+9Cz7qyAZjLulCeqrrTzqvC0lihnb0ZfBYKwuyj1y7C7zWqfUl6xHPffBdhzYsZZq5T8CDXW92htn2TnixC2qO6EISWv7a3dAXeetUjtwDn7a80Wj2srJH4dmuPZW1rOxueLdrVTPFMZfCw62skyGu3wFe7uQGmelC3gNfd3i9bJSf+zA83vWyUH7bu+D1rl1PfxfyUni+s1J+1L1ctzO83+lUdyrL94MByxuUUsu8x0GC61XSWv8O0OCCelq7kERYnZdCbt4eVDi5adoY71CfhPLjqaL2GAhxrbEUsdmDoMT6rNRw6LUgxZkLUsJJJ4EWZ6ajzXHd1iBGMz8Vp5xy4/D6o4M+fO9Z9EnaWtFb3wOC/P70rwfHkVciY3r3z91evTtIMrj1gcF8ZLgbRPnIjcEAotAnQJVvnbt4ACdGkOV3Z33ZS/yy17RCRbTln0oUWtsfdLn4vtZJlWZk6S9/rvmHgx9fFx0UCEi08fFFPxeuuG0UxLrwigsfALeG64FcNGKXxLJLpOwS8zugd3G4ml1sQO/iiF5iemcSeqG3kCq9JHlvX8OG9OaiIbsrwtiyO0iUXSy70DuGhea+uZlllzCh97gvdmnE7M6EVtklYZdYc9/cjN7FSi+W3u/dMcHHFdCLTcglsLlvrgJ2F1sFu9B74rEmIbvEDXp3i8hlDSy9JOzmolB6sXlvbgZ6cxWsppeI3k3YzUUbSNiNvdndTSN2sQpldzd2B0pvIQVWc4so1rAbe7Obe9uY3VwlsfzC7vdu5RdldxMFArBrkO/motYiJpcECb0DpTf3tvSCfLdvBUVIb262hl4iFWaJzT+AWUKDhFsiAwW1xAJboODswrIMuvc4JF2y2gB/XlmeKhZEABVo69G6IgtkEAADBjTfNIjRuBEmVgQCI3IZLpfhiwHDzsyQz4vJNE1mYiayPpdEPV7AQfA+hfIFcRKDoTVI7kmmF7FEDlzrJ8BrARhMUqGQlqDWiZhNQRcMsEmsEFYaFMPQyPIFGW22RTbZ9GITRFbl4gHbLAosQGOiQgEyMm6MFAsQG4bRn5Ud16nI4Fj22QvTo8VioSBN91TrzaLBsj/XB1a+YkQ63E4QExNATKJh6SSWyC276j9YYBIrwEOpZ6iFAtxQaCcRiETb9nQAM7xAEEsx8iCgJU6TvU8vViEtsAqFQZCckIWcMEOZQmZoUrzHMNlk8h4LsLggG1dUlHwhMQhwAYpDX9dksjUWPiLWkDdTSrQ+Z0olA1MwgjiMLWS8vu5Gc0tWIDDBBIFYBAFEJhgEU6w2VkUhNpgB4a8f/LY8loIxIi2P4+ZLj9JYbRgwQ+jBJsrnICaosQpF4UFdl2CWK8RuH5IdzAIUUntZULSLsFRBXQo9V8EwC9c7/zORtRrHB/6ZVsQIhO3+DCWsSKOBpsdBXcPiMbvBJmIdeXUNguFyGRKpLKRcjHvoCpATiadfpmkajlebofh3fbFU8SGdYOdA9y5QUKhAe3jodb5A2CHeADqig9zyg93xFlgLDrvTQ2CtxhPb2kPLZG8oR059F5FtA7EzY4h1BCcyEHsgG0Rs530EC4g2oY4D9gcM7PmBPT5if//g8E67W6wrrBYzwRanITXpAEqkE4dHvE75rGQ7hb6jtYdHy9vl2aLsSVsWg/RL4IhQcNr5QPiwxL70ObxJxTKUEOiUwqcFh7a7vMogtsbWBEA/gJLYiRQxaYZdIeyuss93PuCH9A4+3/mdF8PH9BS5gxiGzW8L2yc88r/fGeS+M0pvW1K0fY9CHzlW2C0wvYNsB1466IaJQgbfeDHcxroPtMn4YKKHlqrdW8K3c9UwZs0zyujbQR1yBYD8t2/1H+eBsrulJfe4L4qbVkLvYlDc2OAWAABWUDgghkEAAHDcAJ0BKuABuQA+kTyXSCWjIiWr2O3AsBIJZW5Q/72kSdXxlIHhN95Lyvz7Z0UfGf6nxruUvR96D/E56V/9J9AH7Detz6EvQA/qX+86wv+6/8j2AP1A9Nf9yPge/rv/O/cv4Bf1w/9XsAegB6AHW9/h37sfLj9P4R/kX0/+b/wf7Y/433P8vfYT/sf6D1Y/oP4x/Qf4X9s/8V+3n3G/p/+T4U/Ov/P9Q72p/xvUVf6c2vwfQL9rfsv/Y/zHjff1X+W/XT9///r9E/pf+X/2n5tf3j7Af5H/Wv9p+c3xf/tf+/47/2//efsb8An8q/sX+u/vf+Y/5H98///23/3X/y/3H5h+5L9L/2//u/1nwIf0D+5f9z17P//7ov3a///ug/sl/2VJtGJgxis9R3QkQ8nLk/zZK4LH/qsBjZ3xVSIgroN0dKVBoLTRfGY4tSgxqg7707f9EBQxURZ3vTYs/HUhubLGe9adF1don2pBZQxcUhRcJl48s+qv/QV4DZjHFsALDOe/a/YotlOPHCp9ZT2kXXuFnNvOfPqQJsrVdxvNzbFcSHGtN1YGeFIlepD034Mgfz2VJSTghOPRKfeca/dw1VQNmtfZbyZvy+79kUSQHo89RufsozebNthPBgNG2+KZme29Ck3bal0d5v4GcPJ6o7c/Okh4X/GGo/Ne8ZjlLyhnsiL5feOh6+e4gI09vfgobUf4MNVGyzxTLLJxF8TO26P9FQpDMzolbiNbUowzJ9mZO88oH4Ifd5G8ZSDF5o/uRoVstIkInCEV4YcB5TdrCcrJV0VaB5f8Vda6AdUoUXU4P298Kp4NOiETndKRoanMmkmE6dTjmrc7TLJ24gio4fGZYkt28yXK5XaLk4+RInAoL2ko/If1ZkKQW72XEYdMyAftXRCo2qfvf68DCdixvpjMkxfzfeGmJIPhb57Lbl6NNonHKhwHA2I7EWnWt2+YXsb6O9re5c1DOaIYq4h+uuigCuetNcJyWiY0GKEWZ28pP9Mo1qsS3il9T9Svzf9l8szfyN5Nbz7lxj10RMjfGuQcwr+6u3bCGZpHwPM2M5hjIc2cZPJ8FOkmrk79FWdgJO2kvfLCdJbldQTGUufysDzUIzvsH8j1LM2aaXw0wEd3dTYWFGtMk0B7kczuh0xg9NRJ83YrjLFEREsdSU8DirWxeWMdJbNuMCgUp/tkE9T/f5lOT3hCRxBv9zGIKGACIIYpK8eJ8cncjb6GaXIY4fKUdoVUYEy1cU/bFnQ2SGgrBZ29kGXc8FST/ESqpEao5zWhWJRS4e+QBv7EF1L3eM0GdkTK1Vf9jLlEcg09eMm2jF9ixLHj//nrn1tXFgPeH26PK63DUrQqFvwrKha8CBEvtZec72MmtnjfqFHrPdPhK0bgpfQzF99gqRTUy05KRO9qOqO0rZSY7gJeDu/ap8NKvLL81pBMeS8I1OJ7xijALAP1DErOqGoenNgqM0levzfbyGXDTBixpB7quEl6UlOB/ESO3pMf+140PosTrR9VvE/fcnIFITWUGMewEbIWgAQ/uFUktMGcaU+qLNxfL1+R1EylsAqSixDcI8/MeV1f1lRBOXXIVLEfg6d5zC7BXF5B9krimP3zTCwknjqdQF3t/P1wIN/QQkcxOyDKSLmpBAnxVM0ohunnW5/LerLu4atDQlMa1wW7NHvbdJD+9P6fc6VonUwrKzQgSTpvpsAwRRfCD7doP07jHi9iJA8kGMhKj4EnG5omPyIrfot29qxHdocWnVbIpKiJX/dSaA9YSxsV+9+IPJrOtMziN4e9NutiVOin8P5GWkwVKf9TKQrpO0IqJ8s4MnM2Wthcv0F5rxuR5zu770VgKw2QOxfFNRdlchUhI4dPeD3OMeuJynI+gt7CjTwW3sikSEaAsZEm4leQru3SiyH3OHnLgKEmUZ8TULu6M2M4fq/xZDLiTzvKe9KLR3L76gSWCunR0mdg1hruQPCRy4Ve0boeitRF9wqxnqif5Is17U4imipp1FGaKK53b005Q4cdV4NlXwbW+7und1nUvf6nL10232O+PjbW216H+h0HUNPHMpCSyEHZia0baNh5RLa41iODr9cPSMlHzSTdxchXq8BttSpR1A1kzCr8SUceIHDn7x43K5yfZmVR2JxdmrL7Pphah2y4NlAWf1vIl0i8bPrFs+JutIDy72QXmiUQtJA0zvvPPZpYMSM5nZXIEzWxPgHgV8+JykNjo+gh1KoZTTyNzXRRRHdQlIqjgxMeb8rLHcuO9z39+DqeWqrLUVO95AT+PVQIQbkNm50EmYn78X4+fuffC45KQUZJcNX6GMFYPLFdfQf39ji28chdJdbrhL3WQlDtZbiXZ5K47/VQAP78SgERelfoaH0hh1TxM7xRrhGiDper2feqPUrvLd6966pF2legXUEdLQtyBeAt38vl4U2+tEP4DCpnt3DihwvstUORqiISWG5bheVOqfq75xzdsEACwsotm00+mpElz6mPFrNq8igqBcovr0opAvB4KzTSrICyUWHJLrnhuEJPB9IAeGP9Tdysv4lS6IEbk0NLd975dnLkB8LEPZ4K4aJNIQHnlPhhCC9/nwLP083sEAS3J1gGX+GfHM1fekDDXzoXzTDqQ94y1tu0pVqZo/1QsUQUUEDmuhWCvEE4iw9JeZNoXa8Iiy2Kpjz3BhtdAA0+OJP8FCfKLjLb924XytwUXbenoQR1gEmanm37/1t2Nr/J2H5nDdQ5716HAaIpTNPdvDVLIdRYs6z8dAsKGgZsca5Hfti9wQocb4LvUK3o1EsJi1pfJQjan9ONmZXpoHbLtoUuUUbkyFfeVyC/M818zmSmP4B64JhvFVW/CSM0EE1qb6v3awSHumpvvxRpBmKV5cG7Al8pi78ZCen/OeQnsZNkY8AXexfkd1CBSpDxkAwJcABY8zDid2zqnwiw+YgXtp9FARfWvk6KtcOYrSr7yvhN6FyCfMhMT+XcGAJAH5t5KTjvG1e3omYsEhGSEz2E2vnMWXfuJfHip21PzSUhl5w4YN/p1VL9iBowz1KLiHZ3Q/O5LXrDsf6IFn+32ePPXy7IvYIIWKJjkR9a0bVSoH+q76hlz/cG2GoQcofjYPw1C0U/O4O/gGtKiNmYJpdzehPSPR0na27JGca579nOsvlF42rjOsbmNT0PGrpCRSLGkciIz690Ogb25ZDf4B8LEsKlGf+q28/hqkDMhyTRjYhPN5NYIBOBUaGh6nheqbhDamt5PDufCUCRanLhk0EA8mxlB1ozRR424Ef+YE1QjJRQWml0nBNSV9SuvRI9al9t4pPsHDmbibOLhewO3qwHE3pwwB1cgO8716ei7cT1SZkgbhghq1pShgw2g6Q3z53W+rxtHdm9wNtl7VAedLUsGn05Sleb6MWcgkddwzCeVEb93tmmEXIn13o6ZMKb+fxNRsXH6a8tPDQeL+N1/DSfBYT/E7pJ5kYzLdaQK2xAPfzuwTBF9BVlXw66nfg7lA8y98MczBDKWZORynJycWBXcKrqo6FelzsstG1ykHwUUvxQEbiMyma7+FyVGMUGITgZYVcpkwQM7q+Xk4htL03yeUuU7ggoa0dyFx9gFLniLLTbBO4hrI30aWPmxDpnnSexLPVFhcTwhyOCtwArpKOLj7qyhTVUzcLYp9qgUO7Rk4yM5lPAnalJTvgutpik+1eXPB5EU9TYOxfeWbgA3a5iqVUS2RZSnnRjQg0+l7KDfkKlspuCiZjI8f3LIn9s0zy8zXJdgL+M0G0MApHv+iL/a38o+3nhtPVGi7qcfhSE1kAeKgqwsqmIPc9fU+M30d645wwuskrbAFyPZReUPNrvFUn5UyWLxdYC4EuSEXFVDmYl5VCqj5Fzg6eoEjXXqYMNcD9zXrVWjBCwSXPhq9eNUUh2qDmrIIxPSPxTZ69vv6DlRlNIQZOFax1i5YWUwdo/EOANytUb1mrkW6ARtjUyFw7k6Qk1a7nlhV+N/5dZgffccnuNNQNp0VKtCZV1iKO2QsPYL6VheBRri35NEKjHFtjzU24cfMtOuYTtMf91d7B8UgEb1epFQB1TzqzChOdZ7yg2yzrr5S/1/yeSmxKV76W/lCVW6H2xwz3vvXtl1hLELl1sHQHNqZE2Oy4VGwwE0YEPGuXBtjnTJp7YOLse5H3ZQ3vSShmZNCcjXtZCLRWkbUH68fc/FA4hThHyfPwbOF01fIhxgNJ7PWaHWZo6dzQ4ubEyWzNFxiHyGcc8nDjQFNCuUH5SuYwg4oPiJEG8BbHu48nCfHQ3gqX6VPJRpbThXNgswo+bQoFc379skp8NCx6/eR/idfm7wQAe4p50ZbKPWNnhSU8hXYl4cS0MIf4V8OJx9EY823rErTTcZj+La0ncndyZX0SyAbbRL5BnHYocqx58TtPNbFX/iUDFQ3vu1RRp54Eb3Qv2WZykGl+bib4WAdiAd6foqWn9cOmrAw1/wwrprmOilQv6PAwaVOKpHWCqQRSG/1BU11yckWVVdcNo+dLlA5qrL1q92V26RHNSYkM4ws8Ygwtmz6uaiSCI91wa70kWfAJA+RwFqFnO4XeyzDIzTLAFcvb9azcaTUSrmVjEytRU3sIMxiZjniLcEP21fDQMF+p8PPMNXIg57w68XeCOiYhXoBtczhkWQxzTj2jtAHqHz0gWNDuI8zUklEcDIZS4r8kTGDW6rpt1nL6xD+hbT+XVuedqSPefhWCiMTSmkxmCSsc6SPiD5K9ypiC2YudCh7cl0EexPSqoo6jv6VURHoHaWGmndzHXjPN+YA0W7MlJFjUcAvbc/XJgUjr2jh+nuIHg5RcyPIrj1Njjx9yqGQsDKgt3bY+yPxdG74OvM6ljwM0QSPdHczCOBFp8uemRZRvCfgK6FR+6ldHeH6mxnjfdZJpMdyoSbFX6DxtqJyx1W/303AK69RavdTpwikFCgeGYru7v5eYLM7ltGLXFmZPiTQWy6+QNy23wmUrsXrmUfSKoKpMHNWHmTjs8jZ0dHsy7KQxuseKTLylIaG3ibEK/ccxiybGHczMqXm7sOHIBR4vC0Lf64+baCngFqopeddop8kV/NWxsNYYI6HpigT8GWtcp8EgqgD8qxDzKo/d39hXH27gTlLFc0F0dfITnt604D1rsVpWskWA12CFPEMFcnw5+eHOTqhoEUBpblpKVtrA8k3LC8swgFWZ8tHRnHGDvsFTDr++8RanzwUglfGHeyJnl1Dnv1KXyTJrATaOd0hnTILtjoklVysDFLzMsuQaFLb4v+mlErNhdevvi/yyj40b/f4xMVTz2csNmg5z3XN9tl6hEdndJP395o4Tvw1xtsY/sBAGtpI89jQgon3B8x7YP9hPoLfvAVBeD2iH5G3FSw38vIFk/8iCf3nBBkOVZra19ul8oW3hDfcR7Zv3JZBteDbCJfALMpbX1dRPEh3/gsw2/iV6ijpa+RmAvKaQiRCDc6ZAcmLk7pyKtopsE0+BPvBC7vtm+VBzNpPtk5/RQwIKHYZ3yE979p1Nr94whWeQxaUqO4HOycLdoVu7xHgo4cGGtx5BmuRm4jafUWDRQySAW7q0lu5aoYXE0b6dSyQ0PQdeRgfIhGY2ik2xAP48ayour+/fkEeauw3R3M/f1pJ7hhcGn8y21nPs7BaHE2YL8PW9vGVLWpbBjyB3n4OZ6U1AI/OOnAa5mWuUhIHSKmxT3ypIsXx4eMXTfgVg7s2qUIc+TXNsmIYkyAfPwuKi6sK6U1X6uR0iMfsxG46p2zJH1qwe3/OFVyhKQG9zfM+LvBLQ4ZYfArea/S8nB1uBPVOrMRXbC6Vs8udDXXw8YOJW0d7ymT2r7WRET4IyrBqCg+wtwx0k/fw+WbKlIshLuS8Hxti+smsSes38QEQ3ja+twVgRu3xrkm90l2fciWr70T0e6ysfzCThhf7qbtF3xiaPPfsnGUPhMoBF+uRvcEf4T1m9ORNoaI/gCPaFSll+zmqpNxKRZcCnXnnefCkrm5CmBPrjEfUa9scgdDh/6xEqp+JTwtUrKs6D5Iad9IR5XFVUD+zmY77Nr2qZElWhcUn8NxU+6Q1iFeyhwV47LIeyQkv46ADx0n9D0xA5p7UMrzuzBnFmIc+v1AxN4OFS9N7cAuM48L3202IdqMzZFgeAQFLs0/JI0FAIpLABuA56GakcgVDwz4Dl253sJh0JH/65jnkRcHSrt5TutEU+7pfVY/XJhkyi+ATgHlm7dZjmL3LsDPHhbXAeNL52eeYp8SaseWGa9VSNvPmnjFwH3fJZwZ2yXDGonxHMeSNoD0NOaM7oLB1FgY1//61hqgq+nuuhx0jVTMqZ+Ak3oZScrb8u04EpVurJgbazkecDOjSUsm6BCvxJXxHayJGEHIGgK1o9b0HjwsZDgqWKY7JWyp+mHCzG0kXMmYU4lUQh+zHV5K2oWo/n0kKDMOznV9Tzo8b6dCMsvffvM57wt7rUrElFUXamCGcGttE/vPpznSQrMoM3uW5L6LP/H8464/Tq3wow7ULZQlgXYb2vZg8BibTOMTeSYyGXJgMfXO2OZ15aU1zUJHd2/p9c/kwUEWS/+41DN9sqLXyqkd9fqHZbqlrliTWIDPNeEkD7kc4s22+RFq6XZVdRQz0Ds7V/AqiG7OriGXV0nSr8hPiF4AW5m2Ehm6v1hp/NgqRNC+BVoDqJHGGK9QqKsjPuoB1RqQmdOiowH96s55UrhT9UG4sR3nAQaWepP8E5rgj376HnsMmrZQHgQldi7jZjG0q63bM/aI7FQgS7Ma6T6Yk4uMRlVfPk7Mf0hJyGyRggCJq/IDyzHLlUAwm4oiNQH5cVKJ19G/LcN/YOoYmOj8h0zyg8g5SbsuQlGu/IBhl1ihgRe0yt3+IjrtCujOOLXay3+GWx9Kx8oUviNpfmoNKTqmvb48LOXFT5XHxCkz4Eg6wNtKhoCbyLuSDJfT7CBSbl6KUgcVqT7hyDxYP9lb+re2uOvA5oA7uJFXruHoa00FDgF2r26HnMD+Y6NrsOQPY6TP33GbFDpunbS9SXZn2Rq2qGmg1QspkgsggHKCYL9yjpSfuSo2garwNUuJ4Mf3fISDp4cst/H05s2OosTWDDsV+lERte8L855yQ4GiJnTXpERe2IjBzZeawx2qktI/gBew+DuNJ3fbw7+JSXqdt2zhQJA6ZoNHFgMC/ldH8z3nyjVLnJgww4kgng1dp2VNirPh66Lr6rTR/+aHFXFc5lEu1gUHRaREG2bc4cdJCWFGGN3qMAA/HDysAiCNebJ1ceaN3IojVzvWLyi47PJ2SoklXj3CnRRH8DnYh+UZEOszriLsgxS76Rwn38eA7AxZ1CW8J0XZrGxluQAw1MottJTTGobIaYWxwFLSOPIeUm7YgybH+MOjSh1sHclOoIQdqDDPkw5xjrZzh1TiQt4PH8uFHeEVWmJJt+QfJnwDW3D1Zv2615shjCf58EWOdfxn6fUq7726ReEp2A9Ac6f/gTsKIrm24XE+LBTVsiEG1DI0OfgSm481YLvosi9QT89QyvvTldv6O/iz1gG1tLUEhqafOV7r46qjCwuWPA4b4alx+WzcwhLoEopAngu74P2vIoC2p5mtKgXvFY6n0Prn+Hci3ITgjULI7d6NjS0dffc4KPR48c1TxBa/AxrvPTKs4CbusLjnWGk5JRMLnK5K8gIMUWbi/paSHZDBDw0jnsgf12D5goC863iOt0yVgAQ9jome6GM6XMFiFVRebi5Y4rkRK+f7WAEiKraEINplCGevkVoPF5Y8eepA4JpDCU8gAOpg8R8eoRkY071a/DipK0OKm1zA5TxBveFXOMyfh262joDFQpObEhqb3U96CImKYpYwiCebS9XU6ugAQxhifeS9rfnUdEviURI5kP2P6C9DbsGGtyvlWsVFTnM7C+w9rQff0bhb+HtJV6moix5DWcEpeLpwl++Pm+LPiBpSTgA+ycDwdvok/8dT6gIrhIr8aXnSE2z+ndI8uPj89vw/JzO2ke/8fOfQ5X4PuvKthn0xSmA9IqG1AW3X7shjsCaqq5G2W9z2PqvmUXFPtszN+K8TmfaKEr4jMFVRIAf11AAjQQdepM1ISx3EXbJ5AHfsVWEnhJnM1CaqeUw3cYFPTyvFEwFq8OwLf7DGM+R0QFoCtpy1DQV4439mY9uc6tUVuE/l/IIbO4G5MOi5TFdl+162dZXazZPIWDbpq0I4klzr8uxvV/OyYkv7sZf9wZRPoT0Mo0WiPCWGOiUZ82NXyseaxzVfR7OP5DWHlSs7f05qk0hXDjM9ov1Ypg8YHVOfUgLg22bVqElVI2gTGS+o1BnDBXNAI6qFKlDzEMCtrl+QQhzLDQzCpijnrbgCeQ16AK6vCd2tsff4+JIdullQoK30wwYecE+lbRI83KxN0jGefwCDdZvrT/mntWc9fQ/z2EH6+i+8s5LBGM8y555V2D5kcosrhN2HO9MGb6gCOZzQneT5Nq4bPZXlTmxQXNo+lGoiOQltSeyXjAwE5EnBDDW3kabU2fOcVDjb0thPTcd2ydnm0KheEsl3tdmSdNwABB4W9okQSs3xbxwGS1SkKiEAeuZk0lFEg/YYtobkquU1ar+hc4WJtVrvdyg1vgv3CqXJOj76/L2DU3RmqZt+hCaVI4OL5gSnpMRQd84UCOMuzXfD0EV/YuEWXxFcvPdqWsR1+aVZA0X9F/sKagrkyZQco4WBD3Z+Ar5mShBrbkPlW4l7PAiwazksMsZawnuucC15M6DY9UrTklSKObelyu4XisOm65qz1zI0Bwg2BtI829fMkiEoFv8mV/VfqXGfTGJ02PV5i4Tfov+XFTGQdugKU4HED3oq4IYnKDbSHLNgf7oyEboqEgQviC70B8c5hjDTUyr2fhNc1uyQ+RTT9ot87fu+Z5sUR+r0vyNeVa7Tn2lOkRmn6aLb0gmTgI5p3XXhaQAPrP13HfZSox+TM+/b50F4mTMSiCSXLdMqrfa2D/ZjNQNDB4SWyFjMf/K3GVsp3Zqhh/CD2QFo/P4ld3Roa2cIvk1e2X9NTKV+HSnkVFBp/KavpNDgrleSxgoFjlggZg+D/KuAZ/9Dx4OPFxK9BS+aI2j0D5dOOD1bxbH/NBHibvqR6xFTB55P7WdOOjgxs+0H2wvngGnYRYjZ9jrWZpm0DD83YZVaiZ02FQLq19z5wKwrNHfjGptbco/BUeyLJ91dJPndPl2QztAoMDF2zcy2RFjKXwDXboM+wlf1RHx3Imc8v3dn4Gh0fPxIBXIZQaC9QdPqAkl2QL8QZu5oVTm23xzPR3yzaHUq6D4vTDvqHrjGswPT4ZaNNWV7G0wwzxoOc7pm/1MxDn46bLRXjY8oCs7NE314o4Ucy0gyFeSAtWxOzB4xR3nzm0hf6J6W4RA8or9LNQpJAtsKFkfc6QUrKJ2Boy6QtY6PWaKYij1pCcNeJf0ZBFPbNbPpDZN5lFphAfK2t3yWQ2FMARcLRkeSIwNE/jJJHS2tLljnxGOttY9TRY9XhPbpbfxSLnkBk9M/V0oGLgQR1SoQasLHIRs9hZ7KzzuY1zmNPJtnqIafHGZuWu+OTGU1wafS41pJ7a/vaquSeWUXHfFjnRyhNXpTugMCWHyWbq5pJ+xSGYD8w3iTscEjjYW4JpKDw71d9hl+laNY1zEufULSQg2rZIpNr1/l69M0OHRaI8wj7hwf75GR9rNt9lMnWClbS6BsRUn3RMvivl/JRcB1hyUKrTRByLHo/cgZIVd0Tj1X4jq224yKueI1D9MOCTtVxVO4UZgodQg107Z1zWf29Tt2TeSzi6UW0rXDZLuO4LWhBu6ue7ARPdTJOuI5N7UTXBrkQ3E4+AzPmmKRDAqgyABIUV5KBQOTwMhHulP9klLnDLGtrvfPhpeA4Zp1Ey5lhW2akQlAR4RNOAEg0C8NCKzV5x0lYldHLztfJgocVCyUAalTi+tZSuBnlIHIMeSD87fX/ku9ueReTqHkSqODcnAfdu/JWjlHjozuGL294L0z5clBGrluQoEfH+yeNEDenQZiuEnzFUZT3UuBDNFl/oKk+mckGL1HWGda8pEgWhqV3oT7zlhFJNOP+d+Okscw7u+c8E/5aWsofZfH03PJx8dKcX9DjTyzs287JCDoNXfdNozrR5K899HETAK5i7n4tnImxhJzh1dLuFsgVTaI3jB85/DwO9a9lsY3XLc06o9twdzH8s4+X/W11ovvqxLl3WVM4UJFOYxtIzZFWn+NvYScACaWARHOr21E4+11NcE9uBVy6aYZ4CePMqn0VYF9Vna1u46uDV+Hg0SfiCuUUckDxnDTQ4k4PVGH9u481/DwqH+D/5QKzeBmVz+4x1AEZHjPgcsSisDk+DGjqXMYlRM9XY/4gFqci5Wy9aoudzIl4tHQWJ6MUYYljZtqNGIgIFbnkEFrazfQYt2T+kFO/KEXw9mTyF4SnXUTq9v3gnLF8bgfbiCEue55UH7TUxjJ6hATBkw3X41rHNQmlQWilqP1SUcrCnyz5HdD7z7zEZqQkAJnHzcd7oKaAB40gfKpuXCLOGkuW0QP9OWLAXpEgkjF2bNOLP5rXVnVmVrd9INFyh+8JGNMVwk/wYGFbjMl4R12e6CitrL9TfIEy+YKH5mCaMmFQuLUd2qIHBa0i8Z9Fvm6VtSuyZy8zdzNBwfifykf/CZL/bCyX48RxFeRupKNtN4b7rgoelxGWUEdNDHwen+Vch4jAXcZtdhWsAhP25xDXsEv4KdjFkT4aKdhfH1FFSzP+cv5E+4v3Ggy0vueHB5wu+dJcNDU8773V2byWHpKfqnOSbUIyeq36IqBlFX18ov5ELac4R90yA2Oc5iPM1Qdo81y//A7wujJEoH5ZxL6iV6cvabniHB484hzpifIQlNYZoT86Xeo+KE3gGw6w3lDEkvHW6+oB4t/MjeEZIX8VZW8H+ILCzWh+GS7rrm9hwjMegEA8UL1S51NkegpD+HtFktXk2aOrr++CCi2UY8LgMJbkjB5zLerh5QCS6xrh3B+7eeyl0KEkfAWfXMcxYSC74wuHQgRhz2NK9sjQ4oIXt4yIOheezcCaZFY/nzQwwJx99msK6S0h/XLodm7guZ+odd/YfFdA//r/db9E69P4eA+8GjzplxyYqrsXlPOOpbvJ9kfvGhR1VhcEtX+qGFYTvoB8yzPbE3MgNuwTIN4/VewopL2ZdE5G6cI4/Mt20hFAhQAo4hENwcf2Pne96Ej0R1gV0K5EVq1O8PiXfG5bTpVttWij4pjMLSi9Nttj8Ve8slKbHPdF/qzfB1+sDjD3LW9qqtQ0wna+l6ltA6JYL3VyMYzqi+F6a4YUSrhpj3S21iexOJ2PJ/+Iv/IyD5fHxXjqdhL+U4fqiDCyaAMgg6fMpIqbC5lmYLmPLSQWk6g8lHaazBIYonMyuoGjhejq+gpLzyRIjaCFTUdrNnjX4X9NoYmK+uMp3k1y4nGV7Dj9l3jEaiQ4ihcZ/GtGPzhGPFKadLFtHv0wp6e/aMQ5hub9/56O6UfCBcu5lk+cdfkLK4UkNcmowxt1Co5HYSEllXpMKQHGHc8isLNVnbvu+mocbpe7Y7kC9vPP1ExoFlZZIBGfp4W7NtSYcowC+hGYKLgTqWEI0WIWSIl6RMWMYy3XM+JFaTysHJXv8vxcR4MJ/hckmFvwRhBEwK+bMSoMrVYAPPNPoMC1tIwpvx2pXi2Em1kW7fdFEdVvAZv19Ars2HA1IjaimiaEV1gBdxD6qRI1vIg+rlubhm4FP3rOFoffmmuBJ75K5w17FM/XVM2AKExdRc2vWypJwVqDbK+qXtLeyghKPHlAykyIbu4M+HQkrXacONpAKY6ac++DV9YG7edDc0DfpBXfmvvot5ZYE5lgXhc2IsbzeThLSPIm0JKjO4LhIB7BSvMryTT06/qwrzNoNEr7E6XJ7xKNsk05QE6nQVCf8lChu5IiCITOKvXNWyx2pP/XrhZCixl+POfNPNBF9xX1AFJhC19b3Gd6B3qhRJ8+esg9KbOiCc6/hnGUXcEQRqWC9NPpbLgDGdgj+AEA5GqKiRh6hf1pM7Za7oB7uxmZIYfOSZ4tqf//5efRjkHqR2nt0O+kZ6VEopWDn9m4vrnaAJatKcYdWFihQ6QOwZZhKWR2RHvLfhxAwcR0fdbNYonL9Q/QF9CTLU2C/7pfR7jMt9NB/9xfR0Y/plHLbG/2RD6uugCECHuh8b8OQICvb6+vZiNEJ1ERnU/I3HES8OqC9yEAmZVioOr+wZ3SLcKM71fcuL9mgBJVtq4E+id49Yhfq7bzQOGZAzWtRq354baTurAva8WbZf6pQltM0jhxz4xpQaxlnAoQNuT3tS03ibrYx0W6IWJyyOVkZSVlmNEIRTbcuXMQnSSiQXCnmyuaG6p16OPyiUv4DhvZ7uJYj6miYYOqRr/LpGBS+6tkEJbr6gNZIww3E0rGvJK612uK45SIaUA3pLjsfIKE0Kaeq90anT73Wc8kAm6jFiZz/pQ6eTzKekz1idPeRSUMvcn/Aivxa34BbZ2IfbNVJGwSU/kV9fkiCU/LxUFP+kejnqo5fbYPpC9v9LFfsSVMTP9gaqdbQJmIperrw+Pfh8WoZFDH/IJ4UfHvd+Bd5A0pSOcDeefCxJNlS+Et2XRJIk7fe6yhFSxmvG1iyYg7y0yhBpBwHc3VZN1s2wPUkYgp7czVdR1GGqE6OW3zJFHlCWWHiPCge+Ltb4aBZXcyuic6VGDaVLIlJ0840JGltBBp3Gnqyd9Gz97vXh4JmFJpoS+iXkD3bQn4hbP8h49B8g6m0BXiwMwt6+VIHOIu4FLnRQd89ZU3Z24e3CeXi2X2oalQtFlRbFgrl6ORpLZPOnMReF02FE0ju9sO5Sz48UOeYUpP8kx+o6lTVY8F9uaa2dWDR7NGIaxfbbRhs/K4wwpnl3Y8MlMI4LK8DM5TBtYrDY5DZJwiUba3Y8EZDzUjzznVVpKZJuRlgK2w9Xl185wei0T2itVUvn5tkw9nqHkmw44HWdCF6RALkd+sHe2qJYnS9kkwV48TeoKHT2vFm5pAocAq6vB+jyIcA/sdyVAXDJ+IMduc+lqtgbwOh7G6OepHHuBa2xcQmpwaV5rgrcMtsXXVwpa7XmPFN8dpr3hPP/OIohAhTjdK0YosyW8LR/NiWaFkPfb4kHeMQef8A6C1Y+UkWRfBz0K/rU2YaHwfuX/h0x7hX4+Nu7aRz+0OpfAlZTzsYAVHSC3sqh46SFEs39yL88EWDc0XVaB0F5wY5Ph7djAqABo5QbVZCOIobKTVdAR81/s9/fy8991NFUl/WyaJUVZ0jFXpYbzfceqHNonmtgZ3ZY/HwJrMMEzUqlMc1Vaog7J+yr/rLvaYSAC+3bVUK5rDMGlkfttOUUHpWKGuiAw3NALxe13fWv7H6hnhSvSdye6Dbkpnc6ccleLqb/F1lIsTLJYotXYCDn292vhlatcBIDokLfloOzQReKKLJpafp60rJfL3L4fkRWY/7rXbqJ55JY1ZchIP+cmuhSh6YlaV286Gpdl4/OfPDCj9BaYdqQjSCz+xkLOt+xwWfJoxllIYv967ZgLvN0zvrfM0jgg8KOJU2YdLYSSnMoMFymxXyMrXXy0DuaYXy6AcH0gHJAMaoKbBNMvGKLXhByql0hTD5rDudzNU5HMA0KczbxHOE3UEQdwyQ7It4Gj5kscrzkUKpV5STrPI1qhH5P1Xp89zBZkZ8Gxi8xu3iEBNBOef2Nu+tISJDKgMl3Bl+rROk/TaMfok9QQlyvc9f7o40gBQKwMGuy0ztIYSpMT4SFwti5nRp5jqWN1HysWf7dEVMxqcdzTzmUBpByeaRKTmyqrcrn/KFqGhMCEG/zuGQk4ME5+Tin1BtrCrLEoPhGzaI+2Cj4L5F54QnZe5EpMYIe+bPTkKYI0E3GCgSNVWjaavwIuFqTM3+qDXWryv0vtSILKEEG1qfj8CiN2t1H8pWwP3jIdJWpngXtEHEivIuOFjnkw+ILZPBBat9dYUTuYRtFkCPvsKVtrJlZ1E+ELYoIr74cevK4VyLrLjp2FpElddgNIGGnsS+c0kGocpnNtNN1LwjMh/wHMM2zY15KjuL/xBrNTMjlIbIg10OBLCTIKlw3z13kaMym1fp1CpgiwD4GS1eMvGpi65ORplazeJdRkgTcICGTH2aAuWY4EAXWZZuTVMFDrNsNBDkE08rcrmPNBdPQltR84N63jWUn4+Xbn97dau+yVlYrAcRuSrizpGb4b7/OsB0Y0OjMmoQzUSZ8yem45BNOne0jmRbO68sxDteK9/Mcnwtc0xsg+PTVk1+zXffUo2JVYzdJhXeTzvmj4CDz58NyXJrQEuBcAk86IPNe4JWvC8TCgg7qAKpkyxHjQh0ZrmXi+h4FzS/WAHV5tcrh4VGWKIdXW26uBvfQzcYBhCRHLGl0llp2/4HiRI8g5qQx0NNHZJaxStXBbmZmONFbhBM7lHSovwCTfNohAn9XOFwgNkDe9ODwYx1LlI9qku68vje0+I2hSxXaju7ZHB1h8nrzD4pZ332piZZ0O0r82gLG7diYb/EwC/+xGRJj2HqPINDLKxZZmq5E0yLAyOvGhrcou/xC3cLtKHpTJTJ2ywkH4AqCkqqMVp6W3RwIMWCC5dDT0r4tXjR/Yscskh+2a2FVQhnpgKPvVDfE2wxCJjIzU1xP24oZM1TpsoR+mfDy23A2QSb/8WXI+yfVCKD7bYx+JocBbOjVyS1GgnEIEifTmiJCdwf+BsIc8OjjiGz05WtqHleWA2lvUN+81SR0Ir4bWCQAqw55uRrhtNVwh8dqvRRxdJXVGhR4n9AEI2MR+kAw7OUL/QOAxrTzqX8Yu0ATxyAhwQbBqH2f4T7s6c1P2Z4LlyurWnMdDzgcyuUYy8FAsbzZWQttpha/UrsnFXhGXK3/O/0YcYtCqLq5DcJmrY+Bdvg02+5Vkt6yBNpiOP3tZqEr7UYgqyFxIuTBOKpreDx2fWvzDCvBFxw4/MgcJkxCQsLJWD8IouYvVMbVA1C2azy2GsDDtDXWvtCaBKSVtele7KjyaPOAOTSQHcONJLcxgui8MVL34eyTeMMuhCciYre8qie3c7/Pa8/jnssE2W1+ICaLw29JOpMBzh2tUEYkLSI7RxibbbF/PAyq82eNxg5ywDrcEfKvG2YnkS4lNC+FwGMBhhx7xGfuMslRVByv4SNXi/tivIw8vSrpC1f4T1cZaAUYCwtE6+szHXY5pHkOlN3/7ssyOvi/p2zaLw0NQWJByPmD7Fy+DisD0/y3zrlzyoOsrWjx1l0DqoPqOxJvTJWdQK/plXqSH+1zjzirrUNNYWohz/JTE9Hv8m1qeYej30S14luFvQ+xartoIklEtk7g594EcoWY7UI+z2UaTKHfCxedGzXY7gb7yfEQC3c8MEBk3LkVZ9a8c3whjy+cZ3Myz/SLygXLKZljzvoyFX4svVDKw/iLhxbeJDHIxnorRCzYbfc2tfX3xZZ6H6ogK6tdnFIX4xzAHUyB1Sz/Gp1k300MGR1UBuUXA/GaWIDw4uegjf96Xh0/Lm3nU7PlxTwZgPlGQm0D67L6fKnr/8hCwQHFoMc9M6IPrrlrz8wxNjXZ6ITEJjWzqdxSVMhV9FtH4gBbAXX9BKHAdY9weGc6xND/D6egR9NfrT9jk5Gs4HHUxrqRHO3R/8NF97kbHzpMXEzfCYupq4K8E0yqz0wxBvRYB1JLahZKsHFgZ1KqBb82atblfz67SLmwUR3CoQedZxx0GEv6SUbsb0zqwMzqvmbLDuEITBCD/Wh7aptr0OZlVEZRycUnQVFzIKgCRdTmhJfKv6d2z9peoeqDagHFpaSVl+s8zOAe0/IWi/kQDJVDQCogp1Vsgu6tSNoNrGUlqVDSrucS7SsobJHzGLVy9LaHoWVANTJoR06x9LSsBA7fxsfVbVuaQd9MVp7h6jo5kxAzYTS/MVlwV4/KQUKItSI7K8pa5uppxYqiZa6s4AaEsZdB8XYav7pXLTM0ejVPMnJVc2jv2TeYOzgMsLA8RVdJ2LZ9It7B7nkylfKqgXhOapDWx2rB3x1MqByZbhQYQHnnrrPATGdKxPtskE43SwyBKXmHDTNbwNUyVhzIoMV9+QwKjTxJi0FcnVAF181JahMAR+VZ0OlQ27Nj2q4EFu7x4Tr1rE5FNuFDtOdQbTbQSfQO1YhCVNVRKgJZj/7+gB2ThNKlWeO5+Rmea+DQr/Dba/nOyxw9bVIdw2zmgbL/ud7J5GbvvDnAXQasRbRCnsoteARBO0rho8f2zMCdXBZgNBBlUR6WI9Ajg31ExaiZjO/XDmL9BwJBwaYWIBHzljH1ZUWCq5D/PvzNqGp2jByfQrXikUe2+8NHtgGa8DahBfTdSolmuD/TBD1+nKRNnGLVF9h6xmQz2wyE8KN/cPW58DqNcjQs2LDHhFI7tUiVZ/JKKbwoMHGu3uIT5U+a0X3jwz+upIlidelZlNhMZiXNT68IraJk8CfWBRswBxW2jnBX4HkMScxCQJF9Pxg/IIbNsRJhI8Dx2kJf0CiCpkpcI7vIUesEiHExZbTstDT4dKbvaOA+JHTBx7VpJdR7G3g0D3EMcCx9nkYmP0rdnJJFKoSzFYYWFSp7Lx/kBSsPN2bn7RjcTLWrHJYUmlqUFuprnVncVbdK5DDBHO++/s5UrzV2S+8blVFQjt1BOFYBoAi6KPuLgVf36OiPnG2JzqQLUa71I9YNwCVNcwLcXNOfVbPAAeGoT32BdwYMLA6d8YYkUfw8P54XsBx1iEmfDCfcSQT50NhxSs99tUP/NJXWLiZ3FWtKVXV3AWoKRihwOMGwJi+p9pMLajWAYWNVlLSjC4nH64G1ObQTitlWdY/+43bsYmBO2HhYNQyH2COL6eE9jO7RrcQ5WQFQjxqsE21eETUfyJqNkZwpCDTXF1mwEe8XPgVoyrXTLDlZRAol7py/aQn6w2QrmFZiAmRe5tXjAYlKwtjmjF2mfqcym+bO7JF3KgYWHydnWu95Mpnpu945r8cMhn3l+tFK8pVwTrKfowtpqTVvFMEpAxdqQun27FWEtSHcyAyLAVfHEFWdJ5HKSqmpCXiFEJbkkybS8w+QXHKJ3b407gDAPnmG3c4J1qaGT9p1KY6cH9MSeUF0iQXHAEqQsmSgKlpdbiqt87l15lrz0w053EuLkM/pkANM+b10owW0uNDy5bWpNMTEESbxq9BK0b+6Fdv7sLGbtKWOB/2qlCf1pFcyoUVcEQPN7Ntq+0spPDx75Nrxaqj90QRtZpvh7yJhvWFhPNIhiJkTlUoOGYVZHAjItgfkm4CJiWHKGztgvl/+6+hb3X2N/tIIbsRMqdVX1lHXCn6G2ZmmcEsNGV08+NDG1ZpdEXhRjw+2GPlGP9av8YxiQGmQspNiEoUyre0mYt7T3JAPEJlBFC25hmFOc4RVnsl5FzEL+czU9dvB6hqzBKskeXs18Mt69yEUD+2OOCbzU13p+eHOci+6Q/2bVuq+Y+YRJggCB4PgzIFk00lRtRXtpBYRM1A6RfGAs6NKK/mB90P6zWNmlRT8OvjZM65PSBS+KASKTFh8HiyXw7M5B9ySImEYW0AVq1FdcdtChnoPGRfcxS812UivOkuslnpLS7YLEymReHOivLLiYJfWJALINE+Dg5oVYG4rq5nm/9BEFCkQH0hy7eOVMcyGiDBdOGBjWMhJcmw/PyXZyBXBC07rd14sWyFIdrzEI+kppK3iAupFR1eWmJ1EcAjp4Rf+Eryhb5SpDxrQx5pLc3NH6iqcZgOLeb6GG2ScQldkSsfgFThmv4aPkjmjlvxtUb3qFvux6PaoZlbmR1WNxDHGNiMfDCMhxdOdm3eOj71npnc8KgL2n8lX+uamZlGMz5ZmrPHGCpcujQ7NGkUSCOFJjt6cNtvOgSxDQrgBq1N6y+CRsWFayrYg20uNZ5ODj+ciUpk6w7qf9aMgS2JUWTyHDJV0OXvWQ5JkL9C2O60Yz6K+6Ux0/K6TCuM7VHFln+Jeb232SYO2lpedq6AIHdbGB+LG05GOEe6PKPwkit0MiMor+T4nfJVGM4Jg472Kv4IV2uEO0sdt9NFBNuXCe+wDiIpSS83J3vR1rW86NsqXD8GYjPDPQIblscooZHvj6IxqN2wH8KUhAEWwaXr02ARbFgWxv+tlkJgHWFV1Mas4AVbpqBOl4AjRJJ/KS3xkw3KoV1PX7GW+9F4nUgZh7DNEQ7htDEi7uiGb1NK8AoAZswtRhuVoMJp/DlaLwEEZV8OpK3T+W6lOrnR5AKy6UO0DTluh3ryHr3fmkZukRvIJ01bShmj0EOadNtn4kkXy/imC5opNAy3JYRfnTZ9YlB1FadiVhBwe/f9aqYsc7de3TZNc/by93lkf5/5p7kgB0EZ1RR3a/HJMnT1N2E6QXz7Ptm+n2sVtv+IEtyBr493p8Xhp2muhhL4b8NXaCC6RUscsrMMS07sQU1aP/1PAw22cljItm3IBgDHh7nCDeFoNgAtSjgfhVX9rOhr/Q27CRGFQJLIrDrjYJ+mT4QQVs7f8+Y8b4ExfQtPppxRtsA3s0Tl/IOO0qTgRrywhhCFuTIhRqub+9wV8nileNbkhEwBlBT2gverudp/80AQVKJn+woAKfJNby9Sadjjpls1YxBxOjEG0HHq4IGu1NtEkEvTPWful+ivE6+jNSOCR0gKNo3/v3iVYF9l3sYSR2uL4JaDOz47rgFr2/JMsQZVYA2Qq7mMsm3Kxi6QfQYHrdOGJnSosaK8BC/nCiOYGqAdVQPiTb18Sp4HsMSN6mNS2mh/mM6WdYligFpHp7H6LG0l4yBNIXVhEXSakpriYLs1fD8K1pBS7F3AbGu9KAQfnibyomQh0gTaoJ9573OUnvMN7zlTcGc053/XTQtxjkA6nvoUhaFnIVzh4KZsH+35h09crDOFxqQxYxMP552ABFaAhGcZWhofBlKDVRLyVn886LCsvrUS0Ppz2+fzrsUly9NbhdreLU9QH3retTckbTA4s+LOMasUGUjQkaDg6MxTCyFDoGZURdWRrw4r/3EZL9XXP6rd2K6eep23VaC8jh35IDKfwm0ZW4+3AAwGpvK94Cvqxr8KjUsIBW2fIALMW6wPGugc4YyacHg+iPvETnXcPZLaED4qLGee+W6/m6uwpyVP27gsb8TpFV9BeSI5WZmmePq/hncyM1MrZioUMda0H9PNUsue2ajsJgxOMqa066Y7OQjlkjQjjQjbdgUa8w1isKrfyXCfJeHNGscPEz5Spw9wfN0EALL5hQYfphOH2Gci2gp/QBB4Jt9yWM4/pSf6NCnmimSAQSPHApmBMa0iaNh6Ql8liugY+Bxict9+Fpucvp4kEukj6Cyh97UTgUxTgfLfU9hTKDBKnOqDt+TO8dJg1A7ngJY8nTXwClNv9mCKtxiAmsmPBLLL0LEySEtc51zDJ9x8Npd5D3YDUKkCFy5JMZOZezkgzvIOrs+oHCLq8T6M0rWf2nMTciEBnJPe7TIGmtXtirjsNuvY2yKpjkxEUP8S/hdCnhrHap9d/wPOkdrLsIXIGfAd4fhyTJ/PW8BTNLAb1FYIVnRWZZBMU4Ii5biZxiqMzp0k580ynKnXIUwllYSH4hnRPVGN01KQZWZZuEVpd9O4N3rl9bfH2v0W2IzldYNYiTJ7XNNH6GYjNkWxDFZFJvpxIGO8N46NfmbgLFBiMSoIyDaH+KtqroKdHrSQfgNYTLENpjGiPQ64BsTnklD20dLnshrg431JE2qbK/9fLED3JolAk9oiYrVBDlwSNuJ8Lqjbzp+hbldJc69KRHpPSJR+tp/+b9We5zcz8+c9u/xaz2okQg/I1hViZmxs212VVMWfLdohVbX5jdKp14VVk3LvoWLltax5osoKjmrQXX6dNQi2c0FUPaQgMKx8n21tYSwHHpSO3nnojhVmeEJewf//37s2qOTpvKxZ/jKfRcFmq+UIX3Snx1e7Puhf7LmSIg2m/HnhpMmvzSqj1BQK0CC3mntCbtZAnueLQzAO7jJ1sGUWcVTzhSJQCdF6KcAErrI4SKv3Y/v0dDwmmsoSealvbqQ51L7G7PDgdILmElDEYRawrNYgRiZ8KhmC+5ho+m55NY/vxMzsuos/mjkRRuAj82kTtK+asatazLPVqWFYWp4uUv9FL4ggZrGM6sxtyrVGJNOytn/RXUgJgcXNCEscHbpfxDmN00WSQ2G9CosoXt/eI0/VX68UNjxzemMXE/XlZ1OyYmgmKBY9mKPWQckPW+Oh+hZ9r5UBQwlct3n9InzdWITOxrnO4kNxyGQjoZtWAAZwxxw6GBBxwWIVlcn+cYpjM/poM2AysP2F1eY+wixNuKO4OttzM5rhg2ycP6K23KpdwErMwOyCoZoKtce2b3NY/3gD8hW88n+8Z+6x4DHTua4lE1RgAqW0AkHNsYiK/xDoC3C4q0XUmbwWBu/9LGzWAxtOjWdl/HbaCzH5jXh6NapuST8SB+0spZ4dB/36EYwlR49crzCDQxZPJh6P+uoAQyoohLOvyl5z6anmzig4A/vutK3gM6hZlU5CJBEA6qUwE5eAPpTe67W7FgLy2XXV1jw8UbhKPvF3KJL2XKkT2tte0RHOJxSqAAcmnbizwI7f4mMfc186kzeItev2kgrH2BSBl+/Mi+kQCpx5zmpuHAM/DdMtIP/WSkitF/7+/bzL+vPinoyFMT2PexY1wVB931grdELtCLvb8DCsJ3Q0QlWmdV5+e8Mj5LKz3l08ycAZdKfs83DBKhiOV4fbRXDBsnMItOyKs6vFp//OynJFVYn0CO6pplVgOsOlatxhS0aorZsh6q5gfVY2ihQUEdTKz/ZUCMRYB5dvINQ6GkRhoKJAYNx7bvCAmnpGMSaDsu4UE8zf4laxfqQIsyGH5u2XgJnEF+VaMtckpbhnkwhhuU5feYAqQAE/eNUXI0xbpvUYAE6SE9wXjcAqN35j4vl4Fvcmp9D1hzv0+hNhyDd01AhNiKhHq+F6cXZHCEHb9wgTtaYnItjFCYSKhXK88b26kWlTbfQEV945GCg36amNWlLFDZo9Ip4ogwchVuBX+tt59MLahxdx6+ybxxnfWX1rRg8WhZa5p0hm2ciWewlN2YNxzCoOubM2wbbws50/ATRFl+XD0Duzrv1Uq2hid9jJ8m3eFn0fFBzO4Ehp3IBLbMGahEyn4wH6QLn6xDGmHF23hPVgnvKnViqfyyoorizBIrU+BqiW1Xo1IETbSCmZugpfyHIpZvar2JAPi7L+pGS/kP1qM6/afVtFkq7+uTgKJvHECs5FX2GCelClt1/O4+ZWUytVfayqR66Y5LTTIgWmBtQTwX5dNDFkZ2yt7Sek++bRyvxpvdk0t2nCU7E0L0Fue87t4ds5eTxo4n3lZ13owt/EVN9SZWetqxu7MLDWOjhxH3CLYW0QUUV8qKmWXtZRlsT7js0y9Jvn/D2oBC7KDF9RAr31rbdWjdFGvrZYgBVY1dC8r0QcF/Em5omdcsZxfWEn9sE4yOmnpvq3oaRkOrFvy9UatgBiUlg82JmO4uTIwc6gSt7kozTN6s0+OpfNrJ9pRYNDOSsi1nOrWWn2jfjFRkZPE1I/wOZPyViAZLZ48v9DZrCiOvP0zkGATq8QZu5GJiW8+RM0b9wK7cmmZUF5BinGnocI7GdbsBHz/rg+KQmDg9T66ZvLHda/Lt/awc+Y6wKzrOacWt5DnzYeUMs3sj9HDtW/HIA5zFIYYUfkYsEA3PJESD6Nx7fna1BDmj1K/X5D8jRQjP/y6d4WkD1KYven7kTZWhhl686rSsrcOcGfth+S+rJWAwU/j5nCydVM93AfEBNclALchlQHRfaVww8Ez4a+WuLcDaIu/L0XgJ+wdgb6UPn73GYgxcfZdd8+z3Xv1AeuKJhKincVrzaDZRZC4MBW7zwbedCldZlFof7Yj38vAbB2AimTVU4LkjJLKQ/nVmAiMQKrYm+FRDEa0L64J+LmmoSC1zGmPB0kaSw8PmGNr1bRBme8p8b1oFCODkwdc95/LVCZ+4u2OETDvtKjN+VfUVgnGgXnel5DMu8eCTntUfGtqJ8I8knRVweII7kVgVsAsXcQkXCzVifNkNdqzOBbi8vXYT6N1h7aG65Bi7g2LfRpXUAVr0XvSMTEX8DGb5NKjJiwnmx0ClSpK3W0xcvzDEYpUxjrc8zJ1wMvNBo1t6YmswL3XKTR50p3nt/mniHXZXfU83n2TtDHTq86p6p4P8R4+xbmjHtOoWg6rGscse4pkc8n/PCYt7Fq0wCpBK6OefP0mmFTcE5KuwpoFmYBZ0buADxa2fHDPtwRu3YtT2ICWSlKR5xZIYV0TeWpBxEE9IwAupOv8KihTFbxVgAAAAAA=;" parent="1" vertex="1">
          <mxGeometry x="210.74" y="18.200000000000017" width="155.68" height="60" as="geometry" />
        </mxCell>
        <mxCell id="fuXAAY25fGCJyH8Hi8wg-33" value="Dell Poweredge R730&lt;div&gt;&lt;span style=&quot;background-color: initial;&quot;&gt;Type1 Hypervisor&lt;/span&gt;&lt;/div&gt;" style="text;strokeColor=none;align=center;fillColor=none;html=1;verticalAlign=middle;whiteSpace=wrap;rounded=0;" parent="1" vertex="1">
          <mxGeometry x="183.57999999999998" y="64.65000000000002" width="210" height="30" as="geometry" />
        </mxCell>
        <mxCell id="7RV6S9UgHC443BWlmed_-1" value="" style="image;points=[];aspect=fixed;html=1;align=center;shadow=0;dashed=0;image=img/lib/allied_telesis/switch/Switch_24_port_L2.svg;" parent="1" vertex="1">
          <mxGeometry x="574.3100000000001" y="-198" width="74.4" height="51" as="geometry" />
        </mxCell>
        <mxCell id="7RV6S9UgHC443BWlmed_-2" value="" style="image;points=[];aspect=fixed;html=1;align=center;shadow=0;dashed=0;image=img/lib/allied_telesis/switch/Switch_24_port_L2.svg;" parent="1" vertex="1">
          <mxGeometry x="564.3100000000001" y="22.699999999999992" width="74.4" height="51" as="geometry" />
        </mxCell>
        <mxCell id="7RV6S9UgHC443BWlmed_-5" value="" style="endArrow=none;html=1;rounded=0;strokeWidth=2;entryX=0.578;entryY=0.006;entryDx=0;entryDy=0;entryPerimeter=0;" parent="1" source="7RV6S9UgHC443BWlmed_-1" target="7RV6S9UgHC443BWlmed_-2" edge="1">
          <mxGeometry width="50" height="50" relative="1" as="geometry">
            <mxPoint x="564.3100000000001" y="-117" as="sourcePoint" />
            <mxPoint x="565.3100000000001" y="22.000000000000004" as="targetPoint" />
          </mxGeometry>
        </mxCell>
        <mxCell id="7RV6S9UgHC443BWlmed_-7" value="10GBASE-SR&lt;div&gt;Trunk&lt;/div&gt;" style="edgeLabel;html=1;align=center;verticalAlign=middle;resizable=0;points=[];" parent="7RV6S9UgHC443BWlmed_-5" vertex="1" connectable="0">
          <mxGeometry x="-0.2859" y="2" relative="1" as="geometry">
            <mxPoint as="offset" />
          </mxGeometry>
        </mxCell>
        <mxCell id="7RV6S9UgHC443BWlmed_-50" value="Cisco USC c220 M5 Type1 Hypervisor" style="text;strokeColor=none;align=center;fillColor=none;html=1;verticalAlign=middle;whiteSpace=wrap;rounded=0;" parent="1" vertex="1">
          <mxGeometry x="226.42" y="-157.6" width="140" height="30" as="geometry" />
        </mxCell>
        <mxCell id="7RV6S9UgHC443BWlmed_-53" value="" style="endArrow=none;html=1;rounded=0;strokeWidth=2;entryX=1;entryY=0.5;entryDx=0;entryDy=0;" parent="1" source="7RV6S9UgHC443BWlmed_-1" target="wdAff879FYjF8KZ41Ooy-1" edge="1">
          <mxGeometry width="50" height="50" relative="1" as="geometry">
            <mxPoint x="614" y="250" as="sourcePoint" />
            <mxPoint x="413.87919999999986" y="-253.09399999999982" as="targetPoint" />
          </mxGeometry>
        </mxCell>
        <mxCell id="7RV6S9UgHC443BWlmed_-54" value="10GBASE-SR&lt;div&gt;Trunk&lt;/div&gt;" style="edgeLabel;html=1;align=center;verticalAlign=middle;resizable=0;points=[];" parent="7RV6S9UgHC443BWlmed_-53" vertex="1" connectable="0">
          <mxGeometry x="-0.1031" y="4" relative="1" as="geometry">
            <mxPoint y="-1" as="offset" />
          </mxGeometry>
        </mxCell>
        <mxCell id="7RV6S9UgHC443BWlmed_-58" value="&#xa;&#xa;&#xa;&#xa;&#xa;&#xa;Nokia GPON ONT" style="shape=image;aspect=fixed;image=data:image/jpg,/9j/4AAQSkZJRgABAgAAZABkAAD/7AARRHVja3kAAQAEAAAAPAAA/+4ADkFkb2JlAGTAAAAAAf/bAIQABgQEBAUEBgUFBgkGBQYJCwgGBggLDAoKCwoKDBAMDAwMDAwQDA4PEA8ODBMTFBQTExwbGxscHx8fHx8fHx8fHwEHBwcNDA0YEBAYGhURFRofHx8fHx8fHx8fHx8fHx8fHx8fHx8fHx8fHx8fHx8fHx8fHx8fHx8fHx8fHx8fHx8f/8AAEQgAlgCWAwERAAIRAQMRAf/EAKEAAQAABwEBAAAAAAAAAAAAAAABAgMEBQcIBgkBAQEBAAMBAAAAAAAAAAAAAAABAgMFBgQQAAIBAwEEBgYHBgMJAQAAAAECAwARBAUhMRIGQVFhIhMHcYGRMlIUsUJykiMVCKHB4WKCM/DRsqLSU2Nzg6MkNBcRAQEAAgECBAQFBQAAAAAAAAABEQIDIQQxQRIFUYGRIvBhcaFSscHR8RP/2gAMAwEAAhEDEQA/AOqaBQKBQKBQKBQKBQKBQKBQKBQKBQKBQKBQKBQKBQKBQKBQKBQKBQKBQKBQKBQKBQKBQKDEcz816Fyzpxz9YyRBEbrEg70kjgX4I0G1j/g0Ghtd/UJzjlZrPpCQabhKfwonjE0jD/mM2y/Yo9tawjP8s/qQBZYeZtO4V3HNwbnb1tC5v91j6KmBtnl7nHljmKIyaNqMOZw+/Gp4ZVt8UbcLj1iorMUCgUCgUCgUCgUCgUCgUCg135kecmicpq+Dhgalro2HFTiMcNxfinZQfuDaezfVkHNnMPOWfr+pvn6zmvNlNu8UNGiLv4I1YBVXsHrrSLJZEdeKNg6/EpBHtFBFEaRwi2LMbC5AHtNhQXpwdS02+Z4wwsuBwqIJDHkbfrR8NiV7Qa4bzSbzTG3WZzj7fqPbcrefXOuiqsGeya1iLuGUSs4HZMoJP9SmuXA2/wAr+eXImuKkeRlflGa5C/L5tkUsfhmH4ZHpIPZUwrYCOjorowZGF1YG4IO4gioI0CgUCgUCgUCgUFLLy8XDxpcrLlSDGhUvNNIQqKo3lidgoND+ZHnvkZnjaVym7QYvuS6vtWSQdIgBF0X+c7eq2+rIjTbOzMWYlmYkszG5JO0kk7zWhKSbUFB8XGLcXhqrHe6dxvatjUFPwsmO/hy+IvQk23/bG32g1RdJrmccf5GWV0jbYuPLZ1uP+Gx4h92xoK2DDpkwkTLyXxJLXil4PEiv1Pw98ekCgsXxcjF/CyMiHLf3hNB7hU7tlyQeu+2gzvLXP3OPLbr+T6lNFAhv8mx8XHPXeJrqP6bGpcDb/K36mMGVkg5n044hNgc7DvLHfraI99R9ktUwZbc0Hmnl3mDHM+i6jBnRr7/hOCy/aT3l9YqKylAoFAoFAoMBzjzzy/yngfNarPaVwflsNNs0zL0Iv0sdgoOaefPMzmDnDJIyX+V0tDeDTImPhi25pDs8R+0iw6BWpEeRJoIE1RC9QQJqiU0EkiI6lXUMp3g7aC34ng2MS0PQ7bWXsY9I7fbQVSaDI6drz4ELJHCFnAYRZcR8OVeIG4Y2YOp6m9Vq4eft9OXX07z1QY2KGfJm8OJTJK1zwi1zYXNcwv5MbU9CONnwZrYee17JC0sOTF9rYm/sNcGnNdt7r6dpjzvhf0TL3vKn6iuc9IVcfV0j1zFWwDynwskD/qqCG/qW/bXNhW5eVPO7kDmERxDOGm5zkL8nnWibituWS5jb1N6qmFe94l4eK44bXv0WqCNAoNXeZHndpfL5l0zQ+DUdaHEksl7wYzDZ3yPfcfAD6SKsg541bWdU1jPl1DVMp8vMl9+aQ3NuhVG5VHQo2VpFnegXoJb0EL0EL0EpNBKTQSttBG8HfQUY7qTGTfh2oT8PV6qCYmgkNBUnzMqaOOKaZ5I4r+EjsWC3te1926gtyaCzz86PHQLw+JM+yOHpb09lEbt0vWuYZf0n6xNNmSHKx8hMXHl4jcY5zMdTDxb+Dhdk+zs3VPNXR+p6np+l4MufqORHi4cA4pZ5WCoo3bz+ysq558yPPTUda8XTOW2k0/SrskuZfhyMhd3d6YkP3j2bq1IjVAItsqhegXoIE0C9BAmglvQQJoJSaCUmgptvB6RQQJoJSaCU0FhqGorj2jjHiZL+5H1drdQoMQ0hjZndvEyn2vI3uqD9A6uuqjpyLlmWL9JE2MhYZE+INUkfpJGYuVe32EGys+apf1b6pqWHByvHA7fKSS5UksF+68kaxhCw6Squ1vTTUrQ+FzBiTngl/Bk6ju9vRVGUDBgCpuDuI3UC9AvQQvQL0EL0EpNBAmglJoJSaCnxd8jqH00AmglJoMbqOpiE+BBZ8lhu6EHW1BhXlEXH3+KZts07bbX6/wBwqotC7SSLEgPfcKQdpdvEO0+nw6K+gI5cX/8ALjyzbaNG+Rt/P8t4f+quNWtP1g6VJN5e6fq8FxPpeeLMNtknidWB7CyrViVy0AkqK7DaQCCO0VtFbHzM/DN4ZC8fTGaDM4fMOLMeCYeDJ27v4VFZNXVlDKQyncRtFBG9BKTQCaCUmggTQSk0FOWRUXiO3oUDeT0AUEqKVXvG7Hax7TQCaDFalqpRjjYpDT/Xk3qg7e2gwkkwiVwjbd80x2m/7z1CqizaTjYL7sYNiL7yJNrN22Q0VtnyS8n8rmDUMLX9bjeHRoHinxccixzCFJve91jDHabd7o66zaOyFMvyTt9ewP7ayrxn6gsFM7yi5iiK8TQwx5Cjq8GZHJ+6DVhXMflz5afm+jR61qUvFp0ZMceJGbSSGMcLF2HuqD1bTU23xcLNemXlub+XZuXuYBjwStPp2WrS4xfa6cJsyMem1xY018W7ZYxZ4XUGRbX2hv41yOFVx8nNxDeCQlOlD/i1Bl8PmGCQhJx4UnX0fwqDJrIrqGRgyncQbiihNBAmggTQUZp0jIG1pD7sa7WP8O00EqI/F4kpBfcqj3VB6us9ZoJyaDC6nq54mxsRu8P7s42hewdtBhJJlRCsZ4VB/El3niJt62+iqLQv4jAe7GDYL/3d59SGg235O+Tk+vPja7rkRXS7xzYWIbf+z7xJkB3RXbd9b0Vm0dY8vaDDixRqkaoiAKiKAFAAsAANgArKvSiIeEV66DFczaXDqel5WBkxiXFyonhniNwGSQcLDZt3Gg58n5E5y5EhzE5XCazpMpaRdKyyY543IteKUd19m8EC/ppZKS2NF63n6pl6rJ+cJLBnqbHHmVozGN/CqncK3IjA5+o5mDkwm3FhlbFbDaQe9t66DIR2cgxtwq7Ai+6zWO710txCR6rnHy45g5a/FzI0ytPJsmdAbpfqZT3kNdN7b79wd10n27/xv9r5vv5/buTTrr90/L/DzME+XinigkPD0qa7p17K4mvxOQmQvhv0no9lQXpzscj8NjMTuEQ4/o2D1mipT81KBux1O/c8n+6v7aCdIo47lB3m2sxN2PpJ20ExNBgdU1dpS2PiNwoNks4/0rQYV5lsEQ8EQIUsN5JNrDt6zVRacfGyE2VBwWUbgOMt9CUVuTya8mpdVOLzBr8JGCRHNp+EbhpWUk8cykf29t1H1t+7fm0dUaFoiRKp4QALWAFgOwCsq9RDCEUACgq0EroGFjQY7N0iCcG6jbQeF5w8qtB1+Hg1DDScoCIptqypf4JB3h9FMjn/AJ5/T9zJpZlydEI1XCXacGUBcgAbdn1JCPUeytZTDV88WRjtImTE8GQn9yCRSjqQNxU2I3VrxJ4tmeY2h69LqEuXHDO+BmmPIWY3MQ8SJTcLc7geHitXgvaOfixNLdZtrmfu97OeTh9UmbJ5eLE8r6Hyxq+CdH1BJMTWfxX03UoAPDkCIX8KYE2Y3U2a3Zeu17zuu57bacmlm3F09Wt8uuM6vNa3j7i2bzG/Xw/H9Xg2YSJwutiRsPRe3XXqXTKsE2Tjm+PJZfh6KmBlMXXY2smQvA/xD/KmBkBPCV4xIvD13FRWA1XWGyC0GOxXHGySUb37F7KowzzBgFUhIr2Bva+zcD1dZoi2EjXBY3Cleiw7qs+weyit2eTPku+b8rzDzDDfHIim03BJZWZlGySZSB3elV6d52Vm0dQaNowWzFayr1OPAsagAUFagUCgUErIpG0UFnlaXBOpDKKDwPO3lNy7zFFbUMNZZFBEeQt0mS/wuu31G4qyjUudyd5n8iow0Kccxcvxkk6Pli8qpvITd/4z/TXT+4ex9t3V9Vnp5P5a9L8/K/N9XB3vJxXpcxjtH1vy71vVBkSxPy9rmMWkm0/LPhJJIqGwVzwqW4viAavNd12PuHa6XTP/AF4r0zOtny8Z8ujttO84ebrtMb/T/bSE2M+REUV+G2y3Xftr39rzywJz8NrG7J8LbfY1am/xZ9PwXWPnw5H4bKQ42lTvpYMdqGozpM0UTjwx07zUaiYTE4yl/dCE8O4tb91AuJJgr7UDt3TuAVQPpNBvbyc8lZJp4eY+YYbniTI0rCvuHCLSTrb0cKe2s2jpjR9ECgMw21lXpYMdY1AtQV6BQKBQKBQKCDIrDaKCwzNJgnUgqKDXvO/lBy5zHGTn4avOARHlJ3Jl2bLON4HU1xVlwYc/c5eRXNOgGXJ0sHV8FTfw0XhylUdJj917fym/ZVyjXDr3mikUq67JInBVlPUyttFBgMVWGq5HCp4VLAdm2tQqy1D/AOxvVUpFabcB1RqPvOP8qo6A8nPIxjJFrvM+KfmhI0mFprlWjCNZllmUXu3Ut/SKzaOmtI0VY1BI21lXoYYVQbBQVaBQKBQKBQKBQKBQSsitvoLHM0mCdTdRQa4568meWeZLy5uIBlqLR50J8Oddlh3x7wHU1xVyOd+cvIjmvlzxsjAX82wQxYtEvDkKpubvF9a3WhPorUqYaZz0cZ7RlSJLhTGQeK/Vw770I6N8k/JIh4eYtfx+PJlQfKabPGpWIA3SZw1+/wBKiw4fTUtV0xpOipCoJG2sjOxxqo3UE9AoFAoFAoFAoFAoFAoFBKyKwsRQWGZouPkqQQAaDzr+WmjvnjPONjnLG7IMamX7/DxftoPQYOiQ4q2FjQZJUCiwoI0CgUCgUCgUCgUCgUCgUCgUCgUCgUCgUCgUCgUCgUCgUCgUCgUCgUCgUCgUCgUCgUCg/9k=;" parent="1" vertex="1">
          <mxGeometry x="1119.9999999999998" y="-250" width="92.4" height="92.4" as="geometry" />
        </mxCell>
        <mxCell id="7RV6S9UgHC443BWlmed_-65" value="" style="endArrow=none;html=1;rounded=0;strokeWidth=2;exitX=0;exitY=0.5;exitDx=0;exitDy=0;" parent="1" source="8oG6eSFOpXyQp_I0NFSO-22" target="7RV6S9UgHC443BWlmed_-1" edge="1">
          <mxGeometry width="50" height="50" relative="1" as="geometry">
            <mxPoint x="768.3000000000002" y="-184.22428571428577" as="sourcePoint" />
            <mxPoint x="1434.3100000000002" y="48.299999999999955" as="targetPoint" />
          </mxGeometry>
        </mxCell>
        <mxCell id="8oG6eSFOpXyQp_I0NFSO-4" value="GE1" style="edgeLabel;html=1;align=center;verticalAlign=middle;resizable=0;points=[];" vertex="1" connectable="0" parent="7RV6S9UgHC443BWlmed_-65">
          <mxGeometry x="-0.4043" y="-5" relative="1" as="geometry">
            <mxPoint x="8" as="offset" />
          </mxGeometry>
        </mxCell>
        <mxCell id="7RV6S9UgHC443BWlmed_-66" value="" style="endArrow=none;html=1;rounded=0;entryX=0.967;entryY=0.461;entryDx=0;entryDy=0;strokeWidth=2;entryPerimeter=0;exitX=0;exitY=0.25;exitDx=0;exitDy=0;" parent="1" source="8oG6eSFOpXyQp_I0NFSO-2" target="7RV6S9UgHC443BWlmed_-2" edge="1">
          <mxGeometry width="50" height="50" relative="1" as="geometry">
            <mxPoint x="840" y="30" as="sourcePoint" />
            <mxPoint x="1444.3100000000002" y="58.299999999999955" as="targetPoint" />
          </mxGeometry>
        </mxCell>
        <mxCell id="8oG6eSFOpXyQp_I0NFSO-6" value="GE1" style="edgeLabel;html=1;align=center;verticalAlign=middle;resizable=0;points=[];" vertex="1" connectable="0" parent="7RV6S9UgHC443BWlmed_-66">
          <mxGeometry x="-0.8213" y="3" relative="1" as="geometry">
            <mxPoint x="-15" y="-4" as="offset" />
          </mxGeometry>
        </mxCell>
        <mxCell id="8oG6eSFOpXyQp_I0NFSO-1" value="VeloCloud 640" style="shape=image;verticalLabelPosition=bottom;labelBackgroundColor=default;verticalAlign=top;aspect=fixed;imageAspect=0;image=https://www.vmware.com/media/blt8c9a8aaca0ffd4ac/blt3e424ce00a99e392/66704cd24969e4f13e85ab30/510-lte-1.jpg;clipPath=inset(16.67% 6% 20% 5.33%);" vertex="1" parent="1">
          <mxGeometry x="777.5699999999999" y="-102.40999999999998" width="170" height="60.714285714285715" as="geometry" />
        </mxCell>
        <mxCell id="8oG6eSFOpXyQp_I0NFSO-2" value="VeloCloud 610" style="shape=image;verticalLabelPosition=bottom;labelBackgroundColor=default;verticalAlign=top;aspect=fixed;imageAspect=0;image=https://www.vmware.com/media/blt8c9a8aaca0ffd4ac/blt3e424ce00a99e392/66704cd24969e4f13e85ab30/510-lte-1.jpg;clipPath=inset(16.67% 6% 20% 5.33%);" vertex="1" parent="1">
          <mxGeometry x="777.9799999999999" y="33.940000000000026" width="170" height="60.714285714285715" as="geometry" />
        </mxCell>
        <mxCell id="8oG6eSFOpXyQp_I0NFSO-3" value="" style="endArrow=none;html=1;rounded=0;entryX=0.829;entryY=-0.014;entryDx=0;entryDy=0;strokeWidth=2;entryPerimeter=0;exitX=0;exitY=0.75;exitDx=0;exitDy=0;" edge="1" parent="1" source="8oG6eSFOpXyQp_I0NFSO-1" target="7RV6S9UgHC443BWlmed_-2">
          <mxGeometry width="50" height="50" relative="1" as="geometry">
            <mxPoint x="850" y="40" as="sourcePoint" />
            <mxPoint x="646" y="56" as="targetPoint" />
          </mxGeometry>
        </mxCell>
        <mxCell id="8oG6eSFOpXyQp_I0NFSO-5" value="GE1" style="edgeLabel;html=1;align=center;verticalAlign=middle;resizable=0;points=[];" vertex="1" connectable="0" parent="8oG6eSFOpXyQp_I0NFSO-3">
          <mxGeometry x="-0.722" y="-3" relative="1" as="geometry">
            <mxPoint as="offset" />
          </mxGeometry>
        </mxCell>
        <mxCell id="8oG6eSFOpXyQp_I0NFSO-12" value="" style="endArrow=none;html=1;rounded=0;strokeWidth=2;exitX=1;exitY=0.75;exitDx=0;exitDy=0;entryX=0;entryY=0.5;entryDx=0;entryDy=0;" edge="1" parent="1" source="8oG6eSFOpXyQp_I0NFSO-2" target="8oG6eSFOpXyQp_I0NFSO-28">
          <mxGeometry width="50" height="50" relative="1" as="geometry">
            <mxPoint x="1197.98" y="-153.7" as="sourcePoint" />
            <mxPoint x="1091" y="-40" as="targetPoint" />
          </mxGeometry>
        </mxCell>
        <mxCell id="8oG6eSFOpXyQp_I0NFSO-17" value="GE6" style="edgeLabel;html=1;align=center;verticalAlign=middle;resizable=0;points=[];" vertex="1" connectable="0" parent="8oG6eSFOpXyQp_I0NFSO-12">
          <mxGeometry x="-0.7168" relative="1" as="geometry">
            <mxPoint y="-1" as="offset" />
          </mxGeometry>
        </mxCell>
        <mxCell id="8oG6eSFOpXyQp_I0NFSO-13" value="" style="endArrow=none;html=1;rounded=0;strokeWidth=2;exitX=1;exitY=0.75;exitDx=0;exitDy=0;entryX=0;entryY=0.5;entryDx=0;entryDy=0;" edge="1" parent="1" source="8oG6eSFOpXyQp_I0NFSO-1" target="8oG6eSFOpXyQp_I0NFSO-27">
          <mxGeometry width="50" height="50" relative="1" as="geometry">
            <mxPoint x="957.98" y="89.3" as="sourcePoint" />
            <mxPoint x="1076" y="-68" as="targetPoint" />
          </mxGeometry>
        </mxCell>
        <mxCell id="8oG6eSFOpXyQp_I0NFSO-16" value="GE6" style="edgeLabel;html=1;align=center;verticalAlign=middle;resizable=0;points=[];" vertex="1" connectable="0" parent="8oG6eSFOpXyQp_I0NFSO-13">
          <mxGeometry x="-0.602" y="2" relative="1" as="geometry">
            <mxPoint as="offset" />
          </mxGeometry>
        </mxCell>
        <mxCell id="8oG6eSFOpXyQp_I0NFSO-14" value="" style="endArrow=none;html=1;rounded=0;strokeWidth=2;exitX=1;exitY=0.5;exitDx=0;exitDy=0;entryX=-0.011;entryY=0.602;entryDx=0;entryDy=0;entryPerimeter=0;" edge="1" parent="1" source="8oG6eSFOpXyQp_I0NFSO-22" target="7RV6S9UgHC443BWlmed_-58">
          <mxGeometry width="50" height="50" relative="1" as="geometry">
            <mxPoint x="938.3000000000002" y="-184.22428571428577" as="sourcePoint" />
            <mxPoint x="1092" y="-95" as="targetPoint" />
          </mxGeometry>
        </mxCell>
        <mxCell id="8oG6eSFOpXyQp_I0NFSO-15" value="GE6" style="edgeLabel;html=1;align=center;verticalAlign=middle;resizable=0;points=[];" vertex="1" connectable="0" parent="8oG6eSFOpXyQp_I0NFSO-14">
          <mxGeometry x="-0.6181" y="1" relative="1" as="geometry">
            <mxPoint as="offset" />
          </mxGeometry>
        </mxCell>
        <mxCell id="8oG6eSFOpXyQp_I0NFSO-22" value="" style="shape=image;verticalLabelPosition=bottom;labelBackgroundColor=default;verticalAlign=top;aspect=fixed;imageAspect=0;image=https://asite.io/i/p/vmware-nb-vc-3400-p-4h7-c-l6252400.jpg;clipPath=inset(43% 0.67% 43.67% 0.33%);" vertex="1" parent="1">
          <mxGeometry x="777.5699999999999" y="-208.94" width="233.66" height="31.47" as="geometry" />
        </mxCell>
        <mxCell id="8oG6eSFOpXyQp_I0NFSO-27" value="Calix XGSPON ONT" style="shape=image;verticalLabelPosition=bottom;labelBackgroundColor=default;verticalAlign=top;aspect=fixed;imageAspect=0;image=https://www.nexicomsystems.com/wp-content/uploads/2024/07/BLC-100-05463.jpg;" vertex="1" parent="1">
          <mxGeometry x="1100" y="-90" width="98.15" height="73.94" as="geometry" />
        </mxCell>
        <mxCell id="8oG6eSFOpXyQp_I0NFSO-28" value="Calix XGSPON ONT" style="shape=image;verticalLabelPosition=bottom;labelBackgroundColor=default;verticalAlign=top;aspect=fixed;imageAspect=0;image=https://www.nexicomsystems.com/wp-content/uploads/2024/07/BLC-100-05463.jpg;" vertex="1" parent="1">
          <mxGeometry x="1080" y="42.68000000000001" width="98.15" height="73.94" as="geometry" />
        </mxCell>
      </root>
    </mxGraphModel>
  </diagram>
</mxfile>
